<mxfile host="www.draw.io" modified="2019-11-17T02:52:25.784Z" agent="Mozilla/5.0 (Windows NT 10.0; Win64; x64) AppleWebKit/537.36 (KHTML, like Gecko) Chrome/70.0.3538.77 Safari/537.36" etag="78tcwdYjdgHfD1_Jq31f" version="12.2.6" type="github" pages="1">
  <diagram id="y_QmiB6c8rPCZiAQrKqH" name="第 1 页">
    <mxGraphModel dx="928" dy="600" grid="1" gridSize="10" guides="1" tooltips="1" connect="1" arrows="1" fold="1" page="1" pageScale="1" pageWidth="1169" pageHeight="826" math="0" shadow="0">
      <root>
        <mxCell id="0"/>
        <mxCell id="1" parent="0"/>
        <mxCell id="b91iQ3AMOOA-9lCNl5o0-2" value="«interface»&lt;br&gt;&lt;pre style=&quot;background-color: rgb(255 , 255 , 255) ; font-family: &amp;#34;consolas&amp;#34; ; font-size: 9pt&quot;&gt;&lt;span style=&quot;background-color: #e4e4ff&quot;&gt;Metric&lt;/span&gt;&lt;/pre&gt;" style="html=1;" vertex="1" parent="1">
          <mxGeometry x="130" y="110" width="110" height="50" as="geometry"/>
        </mxCell>
        <mxCell id="b91iQ3AMOOA-9lCNl5o0-3" value="«interface»&lt;br&gt;&lt;pre style=&quot;background-color: rgb(255 , 255 , 255) ; font-family: &amp;#34;consolas&amp;#34; ; font-size: 9pt&quot;&gt;&lt;pre style=&quot;font-family: &amp;#34;consolas&amp;#34; ; font-size: 9pt&quot;&gt;&lt;span style=&quot;background-color: #e4e4ff&quot;&gt;Node&lt;/span&gt;&lt;/pre&gt;&lt;/pre&gt;" style="html=1;" vertex="1" parent="1">
          <mxGeometry x="330" y="90" width="110" height="50" as="geometry"/>
        </mxCell>
        <mxCell id="b91iQ3AMOOA-9lCNl5o0-4" value="StatisticNode" style="swimlane;fontStyle=0;childLayout=stackLayout;horizontal=1;startSize=26;fillColor=none;horizontalStack=0;resizeParent=1;resizeParentMax=0;resizeLast=0;collapsible=1;marginBottom=0;" vertex="1" parent="1">
          <mxGeometry x="320" y="210" width="140" height="52" as="geometry"/>
        </mxCell>
        <mxCell id="b91iQ3AMOOA-9lCNl5o0-15" value="DefaultNode" style="swimlane;fontStyle=0;childLayout=stackLayout;horizontal=1;startSize=26;fillColor=none;horizontalStack=0;resizeParent=1;resizeParentMax=0;resizeLast=0;collapsible=1;marginBottom=0;" vertex="1" parent="1">
          <mxGeometry x="330" y="340" width="140" height="52" as="geometry">
            <mxRectangle x="360" y="380" width="100" height="26" as="alternateBounds"/>
          </mxGeometry>
        </mxCell>
        <mxCell id="b91iQ3AMOOA-9lCNl5o0-19" value="" style="endArrow=block;dashed=1;endFill=0;endSize=12;html=1;entryX=0.5;entryY=1;entryDx=0;entryDy=0;" edge="1" parent="b91iQ3AMOOA-9lCNl5o0-15" target="b91iQ3AMOOA-9lCNl5o0-4">
          <mxGeometry width="160" relative="1" as="geometry">
            <mxPoint x="60" y="-0.5" as="sourcePoint"/>
            <mxPoint x="70" y="-110" as="targetPoint"/>
          </mxGeometry>
        </mxCell>
        <mxCell id="b91iQ3AMOOA-9lCNl5o0-23" value="" style="endArrow=block;dashed=1;endFill=0;endSize=12;html=1;exitX=0.5;exitY=0;exitDx=0;exitDy=0;entryX=0.5;entryY=1;entryDx=0;entryDy=0;" edge="1" parent="1" source="b91iQ3AMOOA-9lCNl5o0-4" target="b91iQ3AMOOA-9lCNl5o0-3">
          <mxGeometry width="160" relative="1" as="geometry">
            <mxPoint x="530" y="350" as="sourcePoint"/>
            <mxPoint x="690" y="350" as="targetPoint"/>
          </mxGeometry>
        </mxCell>
        <mxCell id="b91iQ3AMOOA-9lCNl5o0-30" value="&lt;pre style=&quot;background-color: rgb(255 , 255 , 255) ; font-family: &amp;#34;consolas&amp;#34; ; font-size: 9pt&quot;&gt;&lt;span style=&quot;background-color: #e4e4ff&quot;&gt;DynamicSentinelProperty&lt;/span&gt;&lt;/pre&gt;" style="html=1;" vertex="1" parent="1">
          <mxGeometry x="100" y="413" width="140" height="50" as="geometry"/>
        </mxCell>
        <mxCell id="b91iQ3AMOOA-9lCNl5o0-31" value="«interface»&lt;br&gt;&lt;b&gt;SentinelProperty&lt;/b&gt;" style="html=1;" vertex="1" parent="1">
          <mxGeometry x="120" y="300" width="110" height="50" as="geometry"/>
        </mxCell>
        <mxCell id="b91iQ3AMOOA-9lCNl5o0-32" value="" style="endArrow=block;dashed=1;endFill=0;endSize=12;html=1;" edge="1" parent="1" source="b91iQ3AMOOA-9lCNl5o0-30" target="b91iQ3AMOOA-9lCNl5o0-31">
          <mxGeometry width="160" relative="1" as="geometry">
            <mxPoint x="180" y="410" as="sourcePoint"/>
            <mxPoint x="340" y="410" as="targetPoint"/>
          </mxGeometry>
        </mxCell>
        <mxCell id="b91iQ3AMOOA-9lCNl5o0-33" value="«interface»&lt;br&gt;&lt;b&gt;PropertyListener&lt;/b&gt;" style="html=1;" vertex="1" parent="1">
          <mxGeometry x="90" y="490" width="110" height="50" as="geometry"/>
        </mxCell>
        <mxCell id="b91iQ3AMOOA-9lCNl5o0-34" value="&lt;p style=&quot;margin: 0px ; margin-top: 6px ; text-align: center&quot;&gt;&lt;b&gt;DegradeRuleManager&lt;/b&gt;&lt;br&gt;&lt;/p&gt;&lt;hr&gt;&lt;p style=&quot;margin: 0px ; margin-left: 8px&quot;&gt;&lt;br&gt;&lt;/p&gt;" style="align=left;overflow=fill;html=1;" vertex="1" parent="1">
          <mxGeometry x="570" y="217" width="180" height="90" as="geometry"/>
        </mxCell>
        <mxCell id="b91iQ3AMOOA-9lCNl5o0-35" value="" style="shape=component;jettyWidth=8;jettyHeight=4;" vertex="1" parent="b91iQ3AMOOA-9lCNl5o0-34">
          <mxGeometry x="1" width="20" height="20" relative="1" as="geometry">
            <mxPoint x="-24" y="4" as="offset"/>
          </mxGeometry>
        </mxCell>
        <mxCell id="b91iQ3AMOOA-9lCNl5o0-36" value="«interface»&lt;br&gt;&lt;pre style=&quot;background-color: rgb(255 , 255 , 255) ; font-family: &amp;#34;consolas&amp;#34; ; font-size: 9pt&quot;&gt;&lt;span style=&quot;background-color: #e4e4ff&quot;&gt;DegradeRule&lt;/span&gt;&lt;/pre&gt;" style="html=1;" vertex="1" parent="1">
          <mxGeometry x="610" y="366" width="110" height="50" as="geometry"/>
        </mxCell>
        <mxCell id="b91iQ3AMOOA-9lCNl5o0-37" value="" style="endArrow=diamondThin;endFill=1;endSize=24;html=1;entryX=0.556;entryY=0.989;entryDx=0;entryDy=0;entryPerimeter=0;" edge="1" parent="1" source="b91iQ3AMOOA-9lCNl5o0-36" target="b91iQ3AMOOA-9lCNl5o0-34">
          <mxGeometry width="160" relative="1" as="geometry">
            <mxPoint x="90" y="490" as="sourcePoint"/>
            <mxPoint x="250" y="490" as="targetPoint"/>
          </mxGeometry>
        </mxCell>
        <mxCell id="b91iQ3AMOOA-9lCNl5o0-38" value="&lt;pre style=&quot;background-color: rgb(255 , 255 , 255) ; font-family: &amp;#34;consolas&amp;#34; ; font-size: 9pt&quot;&gt;&lt;span style=&quot;background-color: #e4e4ff&quot;&gt;RulePropertyListener&lt;/span&gt;&lt;/pre&gt;" style="html=1;" vertex="1" parent="1">
          <mxGeometry x="760" y="370" width="110" height="50" as="geometry"/>
        </mxCell>
        <mxCell id="b91iQ3AMOOA-9lCNl5o0-39" value="" style="endArrow=open;startArrow=circlePlus;endFill=0;startFill=0;endSize=8;html=1;" edge="1" parent="1" source="b91iQ3AMOOA-9lCNl5o0-34" target="b91iQ3AMOOA-9lCNl5o0-38">
          <mxGeometry width="160" relative="1" as="geometry">
            <mxPoint x="700" y="470" as="sourcePoint"/>
            <mxPoint x="860" y="470" as="targetPoint"/>
          </mxGeometry>
        </mxCell>
        <mxCell id="b91iQ3AMOOA-9lCNl5o0-40" value="«interface»&lt;br&gt;&lt;pre style=&quot;background-color: rgb(255 , 255 , 255) ; font-family: &amp;#34;consolas&amp;#34; ; font-size: 9pt&quot;&gt;&lt;span style=&quot;background-color: #e4e4ff&quot;&gt;ProcessorSlot&lt;/span&gt;&lt;/pre&gt;" style="html=1;" vertex="1" parent="1">
          <mxGeometry x="275" y="530" width="110" height="50" as="geometry"/>
        </mxCell>
        <mxCell id="b91iQ3AMOOA-9lCNl5o0-41" value="«interface»&lt;br&gt;&lt;pre style=&quot;background-color: rgb(255 , 255 , 255) ; font-family: &amp;#34;consolas&amp;#34; ; font-size: 9pt&quot;&gt;&lt;span style=&quot;background-color: #e4e4ff&quot;&gt;Sph&lt;/span&gt;&lt;/pre&gt;" style="html=1;" vertex="1" parent="1">
          <mxGeometry x="70" y="650" width="110" height="50" as="geometry"/>
        </mxCell>
        <mxCell id="b91iQ3AMOOA-9lCNl5o0-45" style="edgeStyle=orthogonalEdgeStyle;rounded=0;orthogonalLoop=1;jettySize=auto;html=1;entryX=0;entryY=0.5;entryDx=0;entryDy=0;" edge="1" parent="1" source="b91iQ3AMOOA-9lCNl5o0-42" target="b91iQ3AMOOA-9lCNl5o0-43">
          <mxGeometry relative="1" as="geometry"/>
        </mxCell>
        <mxCell id="b91iQ3AMOOA-9lCNl5o0-46" style="edgeStyle=orthogonalEdgeStyle;rounded=0;orthogonalLoop=1;jettySize=auto;html=1;" edge="1" parent="1" source="b91iQ3AMOOA-9lCNl5o0-42" target="b91iQ3AMOOA-9lCNl5o0-41">
          <mxGeometry relative="1" as="geometry"/>
        </mxCell>
        <mxCell id="b91iQ3AMOOA-9lCNl5o0-42" value="«interface»&lt;br&gt;&lt;b&gt;Env&lt;/b&gt;" style="html=1;" vertex="1" parent="1">
          <mxGeometry x="325" y="650" width="110" height="50" as="geometry"/>
        </mxCell>
        <mxCell id="b91iQ3AMOOA-9lCNl5o0-43" value="&lt;pre style=&quot;background-color: rgb(255 , 255 , 255) ; font-family: &amp;#34;consolas&amp;#34; ; font-size: 9pt&quot;&gt;&lt;span style=&quot;background-color: #e4e4ff&quot;&gt;InitExecutor&lt;/span&gt;&lt;/pre&gt;&lt;hr&gt;&lt;p style=&quot;margin: 0px ; margin-left: 8px&quot;&gt;&lt;br&gt;&lt;/p&gt;" style="align=left;overflow=fill;html=1;" vertex="1" parent="1">
          <mxGeometry x="560" y="630" width="180" height="90" as="geometry"/>
        </mxCell>
        <mxCell id="b91iQ3AMOOA-9lCNl5o0-44" value="" style="shape=component;jettyWidth=8;jettyHeight=4;" vertex="1" parent="b91iQ3AMOOA-9lCNl5o0-43">
          <mxGeometry x="1" width="20" height="20" relative="1" as="geometry">
            <mxPoint x="-24" y="4" as="offset"/>
          </mxGeometry>
        </mxCell>
        <mxCell id="b91iQ3AMOOA-9lCNl5o0-48" style="edgeStyle=orthogonalEdgeStyle;rounded=0;orthogonalLoop=1;jettySize=auto;html=1;exitX=0.25;exitY=0;exitDx=0;exitDy=0;entryX=1;entryY=0.5;entryDx=0;entryDy=0;" edge="1" parent="1" source="b91iQ3AMOOA-9lCNl5o0-47" target="b91iQ3AMOOA-9lCNl5o0-15">
          <mxGeometry relative="1" as="geometry"/>
        </mxCell>
        <mxCell id="b91iQ3AMOOA-9lCNl5o0-47" value="&lt;pre style=&quot;background-color: rgb(255 , 255 , 255) ; font-family: &amp;#34;consolas&amp;#34; ; font-size: 9pt&quot;&gt;&lt;span style=&quot;background-color: #e4e4ff&quot;&gt;Context&lt;/span&gt;&lt;/pre&gt;" style="html=1;" vertex="1" parent="1">
          <mxGeometry x="470" y="465" width="110" height="50" as="geometry"/>
        </mxCell>
      </root>
    </mxGraphModel>
  </diagram>
</mxfile>
